# xmcd
#
# Track frame offsets: 
#        180
#        13687
#        30469
#        43744
#        51473
#        59797
#        72069
#        86466
#        92883
#        109372
#        119777
#        129934
#        137300
#        149181
#        155892
#        166974
#
# Disc length: 2427 seconds
#
# Revision: 2
# Processed by: cddbd v1.5.2PL0 Copyright (c) Steve Scherf et al.
# Submitted via: ExactAudioCopy v1.0b6
#
DISCID=f1097910
DTITLE=Algia Mae Hinton - Honey Babe
DYEAR=1999
DGENRE=Blues, Acoustic Blues, Country Blues, Folk Blues
TTITLE0=Honey Babe
TTITLE1=Snap Your Fingers
TTITLE2=Out of Jail
TTITLE3=When You Kill the Chicken Save Me the Head
TTITLE4=Whatcha Gonna Do When Your Good Girl Turns You Down?
TTITLE5=You Don't Have To Go
TTITLE6=I Ain't the One You Love
TTITLE7=Cook Cornbread for Your Husband
TTITLE8=My Baby's Gone
TTITLE9=If You Want t To Go To Heaven
TTITLE10=Going Down This Road
TTITLE11=Buck Dance
TTITLE12=Shine On
TTITLE13=Careless Love
TTITLE14=I Want Jesus to Walk With Me
TTITLE15=Lima Beans
EXTD=YEAR: 1999 ID3G:   0
EXTT0=
EXTT1=
EXTT2=
EXTT3=
EXTT4=
EXTT5=
EXTT6=
EXTT7=
EXTT8=
EXTT9=
EXTT10=
EXTT11=
EXTT12=
EXTT13=
EXTT14=
EXTT15=
PLAYORDER=
